<?xml version="1.0" encoding="UTF-8" standalone="no"?>
<!-- Generator: Adobe Illustrator 22.0.1, SVG Export Plug-In . SVG Version: 6.00 Build 0)  -->

<svg
   xmlns:dc="http://purl.org/dc/elements/1.1/"
   xmlns:cc="http://creativecommons.org/ns#"
   xmlns:rdf="http://www.w3.org/1999/02/22-rdf-syntax-ns#"
   xmlns:svg="http://www.w3.org/2000/svg"
   xmlns="http://www.w3.org/2000/svg"
   xmlns:sodipodi="http://sodipodi.sourceforge.net/DTD/sodipodi-0.dtd"
   xmlns:inkscape="http://www.inkscape.org/namespaces/inkscape"
   version="1.1"
   id="Calque_1"
   x="0px"
   y="0px"
   viewBox="0 0 1156.1234 450.7229"
   xml:space="preserve"
   sodipodi:docname="logo 1(1).svg"
   width="1156.1234"
   height="450.7229"
   inkscape:version="0.92.3 (2405546, 2018-03-11)"
   inkscape:export-filename="C:\Users\Nathanaël\Documents\Logo\Version en cours\logo 1(1).png"
   inkscape:export-xdpi="300"
   inkscape:export-ydpi="300"><metadata
   id="metadata59"><rdf:RDF><cc:Work
       rdf:about=""><dc:format>image/svg+xml</dc:format><dc:type
         rdf:resource="http://purl.org/dc/dcmitype/StillImage" /><dc:title></dc:title></cc:Work></rdf:RDF></metadata><defs
   id="defs57" /><sodipodi:namedview
   pagecolor="#ffffff"
   bordercolor="#666666"
   borderopacity="1"
   objecttolerance="10"
   gridtolerance="10"
   guidetolerance="10"
   inkscape:pageopacity="0"
   inkscape:pageshadow="2"
   inkscape:window-width="1920"
   inkscape:window-height="1001"
   id="namedview55"
   showgrid="false"
   inkscape:zoom="0.5606491"
   inkscape:cx="464.29006"
   inkscape:cy="470.85477"
   inkscape:window-x="-9"
   inkscape:window-y="-9"
   inkscape:window-maximized="1"
   inkscape:current-layer="Calque_1" />
<style
   type="text/css"
   id="style2">
	.st0{fill:#BE1E2D;}
</style>
<g
   id="g52"
   transform="matrix(4.3742845,0,0,4.3742845,-1265.9179,-1075.0275)">
	<g
   id="g6">
		<path
   class="st0"
   d="m 423.1,308.2 -1,4.8 c -4.6,4.3 -9,7.1 -13.2,8.5 -4.2,1.4 -8.9,1.5 -14.1,0.5 -9.2,-1.9 -16.2,-6.7 -20.9,-14.3 -4.7,-7.6 -6,-16.3 -4,-26.1 2,-9.9 6.6,-17.6 13.8,-23.1 7.1,-5.6 14.9,-7.5 23.2,-5.8 6.8,1.4 12.3,5.2 16.4,11.3 4.1,6.1 5.4,12.7 3.9,19.8 l -0.3,1.3 -43.5,-9 -0.2,0.9 c -1.5,7.2 -1.8,13.6 -0.9,19.3 0.9,5.7 2.9,10.4 6.1,14.2 3.2,3.8 6.8,6.1 11,6.9 3.9,0.8 7.3,0.6 10.5,-0.6 3.1,-1.2 7.5,-4.1 13.2,-8.6 z m -39,-35.3 32.2,6.7 0.3,-1.3 c 1.2,-5.8 0.6,-10.7 -1.7,-14.7 -2.3,-4 -5.7,-6.5 -10.2,-7.4 -4.8,-1 -9,0 -12.6,3 -3.7,2.9 -6.4,7.5 -8,13.7 z"
   id="path4"
   inkscape:connector-curvature="0"
   style="fill:#be1e2d" />
	</g>
	<g
   id="g22">
		<path
   d="m 440.9,312.3 h -2.6 V 310 h 5.7 v 21.4 h 2.6 v 2.2 h -5.8 v -3.5 h -0.1 c -0.5,1.5 -1.2,2.6 -1.9,3.3 -0.7,0.7 -1.8,1.1 -3,1.1 -1.7,0 -2.9,-0.6 -3.7,-1.9 -0.8,-1.3 -1.2,-3.2 -1.2,-5.6 v -14.6 h -2.6 V 310 h 5.7 v 17.7 c 0,1.5 0.2,2.6 0.7,3.2 0.4,0.7 1.1,1 1.9,1 0.6,0 1.1,-0.2 1.6,-0.5 0.5,-0.3 1,-0.9 1.3,-1.7 0.4,-0.8 0.7,-1.8 0.9,-3 0.2,-1.3 0.3,-2.8 0.3,-4.6 v -9.8 z"
   id="path8"
   inkscape:connector-curvature="0" />
		<path
   d="m 457.2,333.7 h -8.6 v -2.2 h 2.6 v -19.2 h -2.6 V 310 h 5.8 v 4.3 h 0.1 c 0.2,-0.7 0.5,-1.4 0.8,-2 0.3,-0.6 0.7,-1.1 1,-1.6 0.4,-0.4 0.8,-0.8 1.2,-1 0.4,-0.2 0.9,-0.4 1.3,-0.4 0.7,0 1.3,0.3 1.7,1 0.5,0.6 0.7,1.5 0.7,2.7 0,1 -0.2,1.8 -0.5,2.4 -0.4,0.6 -0.8,0.8 -1.4,0.8 -0.6,0 -1,-0.3 -1.3,-0.8 -0.3,-0.5 -0.5,-1.2 -0.5,-2 0,-0.4 0.1,-0.9 0.2,-1.4 -0.5,0.3 -0.9,0.7 -1.3,1.2 -0.4,0.6 -0.7,1.3 -1,2.1 -0.3,0.9 -0.5,1.8 -0.7,3 -0.2,1.1 -0.2,2.4 -0.2,3.7 v 9.3 h 2.8 v 2.4 z"
   id="path10"
   inkscape:connector-curvature="0" />
		<path
   d="m 462.8,322.1 c 0,-1.7 0.2,-3.4 0.5,-4.9 0.3,-1.5 0.9,-2.9 1.5,-4.1 0.7,-1.2 1.5,-2.1 2.5,-2.8 1,-0.7 2.1,-1 3.3,-1 1.2,0 2.3,0.3 3.2,1 0.9,0.7 1.7,1.5 2.4,2.7 0.6,1.1 1.1,2.4 1.4,3.9 0.3,1.5 0.5,3.1 0.5,4.8 0,1.7 -0.2,3.4 -0.5,4.9 -0.3,1.6 -0.9,2.9 -1.5,4.1 -0.6,1.2 -1.5,2.1 -2.5,2.8 -1,0.7 -2.1,1 -3.3,1 -1.2,0 -2.3,-0.3 -3.2,-1 -0.9,-0.7 -1.7,-1.5 -2.4,-2.7 -0.6,-1.1 -1.1,-2.4 -1.4,-3.9 -0.3,-1.6 -0.5,-3.1 -0.5,-4.8 z m 3.5,-0.1 c 0,2 0.1,3.7 0.3,5 0.2,1.3 0.4,2.4 0.8,3.2 0.4,0.8 0.8,1.4 1.3,1.7 0.5,0.3 1.1,0.5 1.8,0.5 0.7,0 1.3,-0.2 1.8,-0.5 0.5,-0.3 1,-0.9 1.3,-1.7 0.4,-0.8 0.6,-1.9 0.8,-3.2 0.2,-1.4 0.3,-3.1 0.3,-5.1 0,-2 -0.1,-3.7 -0.3,-5 -0.2,-1.3 -0.4,-2.4 -0.8,-3.2 -0.3,-0.8 -0.8,-1.4 -1.3,-1.7 -0.5,-0.3 -1.1,-0.5 -1.8,-0.5 -0.7,0 -1.3,0.2 -1.8,0.5 -0.5,0.3 -1,0.9 -1.3,1.7 -0.4,0.8 -0.6,1.9 -0.8,3.2 -0.2,1.3 -0.3,3 -0.3,5.1 z"
   id="path12"
   inkscape:connector-curvature="0" />
		<path
   d="m 486.3,313.6 v 0 c 0.6,-1.5 1.3,-2.6 2.1,-3.3 0.8,-0.7 1.7,-1 2.7,-1 1,0 1.9,0.3 2.8,0.9 0.9,0.6 1.6,1.4 2.2,2.5 0.6,1.1 1.1,2.4 1.5,3.9 0.3,1.5 0.5,3.2 0.5,5.1 0,2 -0.2,3.8 -0.6,5.3 -0.4,1.6 -0.9,2.9 -1.5,4 -0.6,1.1 -1.4,1.9 -2.3,2.5 -0.9,0.6 -1.8,0.9 -2.7,0.9 -1,0 -1.8,-0.3 -2.6,-1 -0.8,-0.7 -1.5,-1.7 -2,-3.1 h -0.1 v 16.3 h 2.8 v 2.2 h -8.6 v -2.2 h 2.6 v -34.4 h -2.6 V 310 h 5.8 z m 8.3,8.2 c 0,-2.1 -0.1,-3.9 -0.3,-5.2 -0.2,-1.3 -0.5,-2.4 -0.8,-3.2 -0.3,-0.8 -0.8,-1.3 -1.2,-1.6 -0.5,-0.3 -1,-0.4 -1.6,-0.4 -0.8,0 -1.5,0.3 -2.1,0.8 -0.6,0.5 -1,1.3 -1.4,2.2 -0.4,0.9 -0.6,2.1 -0.8,3.3 -0.2,1.3 -0.2,2.7 -0.2,4.1 0,1.5 0.1,2.9 0.2,4 0.1,1.1 0.3,2 0.6,2.8 0.2,0.8 0.5,1.4 0.8,1.8 0.3,0.5 0.6,0.8 1,1.1 0.3,0.2 0.7,0.4 1,0.5 0.3,0.1 0.6,0.1 0.9,0.1 0.5,0 1,-0.1 1.5,-0.4 0.5,-0.3 0.9,-0.8 1.2,-1.6 0.3,-0.8 0.6,-1.8 0.8,-3.2 0.3,-1.1 0.4,-2.9 0.4,-5.1 z"
   id="path14"
   inkscape:connector-curvature="0" />
		<path
   d="m 515,326.2 c -0.4,2.7 -1.1,4.7 -2.2,6.2 -1.1,1.4 -2.5,2.1 -4.2,2.1 -1.2,0 -2.2,-0.3 -3.2,-1 -0.9,-0.7 -1.7,-1.5 -2.4,-2.7 -0.6,-1.1 -1.1,-2.4 -1.5,-3.9 -0.3,-1.5 -0.5,-3.1 -0.5,-4.8 0,-1.7 0.2,-3.4 0.5,-4.9 0.4,-1.6 0.9,-2.9 1.5,-4 0.7,-1.1 1.4,-2.1 2.3,-2.7 0.9,-0.7 1.9,-1 3.1,-1 1,0 2,0.3 2.8,0.9 0.8,0.6 1.5,1.4 2.1,2.4 0.6,1 1,2.3 1.3,3.7 0.3,1.4 0.5,3 0.5,4.7 h -10.6 c 0,0.3 0,0.5 0,0.6 0,0.1 0,0.2 0,0.2 0,2.2 0.1,4 0.3,5.3 0.2,1.4 0.5,2.4 0.9,3.2 0.4,0.8 0.8,1.3 1.3,1.6 0.5,0.3 1.1,0.4 1.7,0.4 0.6,0 1.1,-0.1 1.6,-0.4 0.5,-0.2 1,-0.6 1.4,-1.2 0.4,-0.5 0.8,-1.2 1.1,-2.1 0.3,-0.9 0.6,-1.9 0.7,-3 0.2,0 0.5,0.1 0.7,0.2 0.4,-0.1 0.6,0 0.8,0.2 z m -3.3,-7.4 c 0,-1.5 -0.1,-2.8 -0.3,-3.7 -0.2,-1 -0.4,-1.7 -0.7,-2.2 -0.3,-0.5 -0.6,-0.9 -1,-1.1 -0.4,-0.2 -0.8,-0.3 -1.3,-0.3 -0.5,0 -0.9,0.1 -1.3,0.3 -0.4,0.2 -0.8,0.6 -1.1,1.2 -0.3,0.6 -0.6,1.3 -0.8,2.2 -0.2,0.9 -0.4,2.1 -0.4,3.6 z"
   id="path16"
   inkscape:connector-curvature="0" />
		<path
   d="m 532.4,326.2 c -0.4,2.7 -1.1,4.7 -2.2,6.2 -1.1,1.4 -2.5,2.1 -4.2,2.1 -1.2,0 -2.2,-0.3 -3.2,-1 -0.9,-0.7 -1.7,-1.5 -2.4,-2.7 -0.6,-1.1 -1.1,-2.4 -1.5,-3.9 -0.3,-1.5 -0.5,-3.1 -0.5,-4.8 0,-1.7 0.2,-3.4 0.5,-4.9 0.4,-1.6 0.9,-2.9 1.5,-4 0.7,-1.1 1.4,-2.1 2.3,-2.7 0.9,-0.7 1.9,-1 3.1,-1 1,0 2,0.3 2.8,0.9 0.8,0.6 1.5,1.4 2.1,2.4 0.6,1 1,2.3 1.3,3.7 0.3,1.4 0.5,3 0.5,4.7 H 522 c 0,0.3 0,0.5 0,0.6 0,0.1 0,0.2 0,0.2 0,2.2 0.1,4 0.3,5.3 0.2,1.4 0.5,2.4 0.9,3.2 0.4,0.8 0.8,1.3 1.3,1.6 0.5,0.3 1.1,0.4 1.7,0.4 0.6,0 1.1,-0.1 1.6,-0.4 0.5,-0.2 1,-0.6 1.4,-1.2 0.4,-0.5 0.8,-1.2 1.1,-2.1 0.3,-0.9 0.6,-1.9 0.7,-3 0.2,0 0.5,0.1 0.7,0.2 0.3,-0.1 0.5,0 0.7,0.2 z m -3.3,-7.4 c 0,-1.5 -0.1,-2.8 -0.3,-3.7 -0.2,-1 -0.4,-1.7 -0.7,-2.2 -0.3,-0.5 -0.6,-0.9 -1,-1.1 -0.4,-0.2 -0.8,-0.3 -1.3,-0.3 -0.5,0 -0.9,0.1 -1.3,0.3 -0.4,0.2 -0.8,0.6 -1.1,1.2 -0.3,0.6 -0.6,1.3 -0.8,2.2 -0.2,0.9 -0.4,2.1 -0.4,3.6 z"
   id="path18"
   inkscape:connector-curvature="0" />
		<path
   d="m 541.2,331.4 h 2.4 v 2.2 h -8.2 v -2.2 h 2.6 v -19.2 h -2.6 V 310 h 5.8 v 4 h 0.1 c 0.5,-1.5 1.1,-2.7 1.9,-3.5 0.8,-0.8 1.9,-1.2 3.1,-1.2 1.6,0 2.8,0.7 3.6,2 0.8,1.3 1.2,3.2 1.2,5.6 v 14.6 h 2.6 v 2.2 h -8.1 v -2.2 h 2.4 v -15.4 c 0,-1.5 -0.2,-2.5 -0.7,-3.2 -0.5,-0.7 -1,-1 -1.8,-1 -0.6,0 -1.2,0.2 -1.7,0.6 -0.5,0.4 -1,1 -1.3,1.8 -0.4,0.8 -0.7,1.9 -0.9,3.2 -0.2,1.3 -0.3,2.8 -0.3,4.6 v 9.3 z"
   id="path20"
   inkscape:connector-curvature="0" />
	</g>
	<g
   id="g34">
		<path
   d="m 443.6,273.2 c -0.1,-1.2 -0.2,-2.2 -0.4,-3 -0.2,-0.8 -0.5,-1.5 -0.8,-2 -0.3,-0.5 -0.7,-0.9 -1.2,-1.1 -0.5,-0.2 -1,-0.3 -1.6,-0.3 -0.5,0 -0.9,0.1 -1.3,0.2 -0.4,0.1 -0.7,0.4 -1,0.6 -0.3,0.3 -0.5,0.7 -0.7,1.1 -0.2,0.5 -0.2,1 -0.2,1.7 0,0.6 0.1,1.2 0.2,1.6 0.1,0.4 0.4,0.8 0.7,1.1 0.3,0.3 0.8,0.6 1.3,0.9 0.5,0.3 1.2,0.6 1.9,1.1 0.6,0.3 1.2,0.7 1.8,1.1 0.6,0.4 1.1,0.8 1.6,1.4 0.5,0.6 0.9,1.2 1.2,2 0.3,0.8 0.4,1.7 0.4,2.9 0,1.3 -0.2,2.4 -0.5,3.3 -0.3,0.9 -0.8,1.7 -1.4,2.3 -0.6,0.6 -1.3,1.1 -2,1.4 -0.8,0.3 -1.5,0.4 -2.3,0.4 -0.4,0 -0.9,0 -1.3,-0.1 -0.4,-0.1 -0.9,-0.2 -1.4,-0.3 -0.5,-0.1 -0.9,-0.3 -1.3,-0.5 -0.4,-0.2 -0.8,-0.4 -1.1,-0.5 l -0.1,-8 h 1.2 c 0.1,1.4 0.2,2.6 0.4,3.5 0.2,1 0.5,1.7 0.8,2.3 0.3,0.6 0.8,1 1.3,1.2 0.5,0.2 1.1,0.4 1.8,0.4 0.5,0 1,-0.1 1.4,-0.2 0.4,-0.1 0.8,-0.4 1.1,-0.7 0.3,-0.3 0.6,-0.7 0.7,-1.2 0.2,-0.5 0.3,-1.1 0.3,-1.8 0,-0.6 -0.1,-1.1 -0.2,-1.5 -0.1,-0.4 -0.4,-0.8 -0.7,-1.1 -0.3,-0.3 -0.7,-0.6 -1.2,-0.9 -0.5,-0.3 -1.1,-0.6 -1.7,-1 -0.7,-0.4 -1.3,-0.8 -1.9,-1.2 -0.6,-0.4 -1.2,-0.9 -1.6,-1.4 -0.4,-0.5 -0.8,-1.2 -1.1,-2 -0.3,-0.8 -0.4,-1.8 -0.4,-2.9 0,-1.3 0.2,-2.3 0.5,-3.3 0.3,-0.9 0.8,-1.7 1.3,-2.3 0.5,-0.6 1.2,-1 1.9,-1.3 0.7,-0.3 1.4,-0.4 2.2,-0.4 0.4,0 0.8,0 1.2,0.1 0.4,0.1 0.8,0.2 1.3,0.3 0.5,0.1 0.8,0.2 1.2,0.4 0.4,0.1 0.7,0.3 1,0.4 l 0.1,7.5 h -1.4 z"
   id="path24"
   inkscape:connector-curvature="0" />
		<path
   d="m 456.5,304.2 m -2.8,-0.5 -3.1,0.1 V 302 267.6 H 448 v -2.2 h 5.8 v 3.5 h 0.1 c 0.5,-1.5 1.2,-2.6 2,-3.3 0.8,-0.7 1.7,-1 2.7,-1 1,0 1.9,0.3 2.8,0.9 0.9,0.6 1.6,1.4 2.2,2.5 0.6,1.1 1.1,2.4 1.5,3.9 0.3,1.5 0.5,3.2 0.5,5.1 0,2 -0.2,3.8 -0.6,5.3 -0.4,1.6 -0.9,2.9 -1.5,4 -0.6,1.1 -1.4,1.9 -2.3,2.5 -0.9,0.6 -1.8,0.9 -2.7,0.9 -1,0 -1.8,-0.3 -2.6,-1 -0.8,-0.7 -1.5,-1.7 -2,-3.1 h -0.1 V 302 Z m -5.8,0.5 m 14.1,-27 c 0,-2.1 -0.1,-3.9 -0.3,-5.2 -0.2,-1.3 -0.5,-2.4 -0.8,-3.2 -0.3,-0.8 -0.8,-1.3 -1.2,-1.6 -0.5,-0.3 -1,-0.4 -1.6,-0.4 -0.8,0 -1.5,0.3 -2.1,0.8 -0.6,0.5 -1,1.3 -1.4,2.2 -0.4,0.9 -0.6,2.1 -0.8,3.3 -0.2,1.3 -0.2,2.7 -0.2,4.1 0,1.5 0.1,2.9 0.2,4 0.1,1.1 0.3,2 0.6,2.8 0.2,0.8 0.5,1.4 0.8,1.8 0.3,0.5 0.6,0.8 1,1.1 0.3,0.2 0.7,0.4 1,0.5 0.3,0.1 0.6,0.1 0.9,0.1 0.5,0 1,-0.1 1.5,-0.4 0.5,-0.3 0.9,-0.8 1.2,-1.6 0.3,-0.8 0.6,-1.8 0.8,-3.2 0.3,-1.2 0.4,-3 0.4,-5.1 z"
   id="path26"
   inkscape:connector-curvature="0" />
		<path
   d="M 476.6,289 H 468 v -2.2 h 2.6 V 267.6 H 468 v -2.2 h 5.8 v 4.3 h 0.1 c 0.2,-0.7 0.5,-1.4 0.8,-2 0.3,-0.6 0.7,-1.1 1,-1.6 0.4,-0.4 0.8,-0.8 1.2,-1 0.4,-0.2 0.9,-0.4 1.3,-0.4 0.7,0 1.3,0.3 1.7,1 0.5,0.6 0.7,1.5 0.7,2.7 0,1 -0.2,1.8 -0.5,2.4 -0.4,0.6 -0.8,0.8 -1.4,0.8 -0.6,0 -1,-0.3 -1.3,-0.8 -0.3,-0.5 -0.5,-1.2 -0.5,-2 0,-0.4 0.1,-0.9 0.2,-1.4 -0.5,0.3 -0.9,0.7 -1.3,1.2 -0.4,0.6 -0.7,1.3 -1,2.1 -0.3,0.9 -0.5,1.8 -0.7,3 -0.2,1.1 -0.2,2.4 -0.2,3.7 v 9.3 h 2.8 v 2.3 z"
   id="path28"
   inkscape:connector-curvature="0" />
		<path
   d="m 487.5,286.8 h 2.6 v 2.2 h -8.5 v -2.2 h 2.6 v -19.2 h -2.6 v -2.2 h 5.8 v 21.4 z m -1.6,-29.2 c -0.3,0 -0.6,-0.1 -0.8,-0.2 -0.3,-0.2 -0.5,-0.4 -0.7,-0.7 -0.2,-0.3 -0.3,-0.6 -0.4,-1 -0.1,-0.4 -0.2,-0.8 -0.2,-1.3 0,-0.5 0.1,-0.9 0.2,-1.3 0.1,-0.4 0.3,-0.8 0.4,-1.1 0.2,-0.3 0.4,-0.5 0.7,-0.7 0.3,-0.2 0.5,-0.2 0.8,-0.2 0.3,0 0.6,0.1 0.8,0.2 0.3,0.2 0.5,0.4 0.7,0.7 0.2,0.3 0.3,0.6 0.4,1 0.1,0.4 0.2,0.8 0.2,1.3 0,0.5 -0.1,1 -0.2,1.4 -0.1,0.4 -0.3,0.8 -0.4,1 -0.2,0.3 -0.4,0.5 -0.7,0.7 -0.2,0.1 -0.5,0.2 -0.8,0.2 z"
   id="path30"
   inkscape:connector-curvature="0" />
		<path
   d="m 503.2,283.5 c -0.3,2.2 -0.8,3.8 -1.6,4.8 -0.8,1 -1.7,1.5 -3,1.5 -0.7,0 -1.3,-0.1 -1.8,-0.4 -0.5,-0.3 -1,-0.7 -1.4,-1.2 -0.4,-0.5 -0.7,-1.3 -0.9,-2.2 -0.2,-0.9 -0.3,-1.9 -0.3,-3.2 v -15.2 h -2.6 v -2.2 h 2.6 V 260 l 3.2,-0.8 v 6.2 h 4.6 v 2.2 h -4.6 v 15.8 c 0,0.8 0,1.4 0.1,1.9 0.1,0.5 0.2,0.9 0.4,1.1 0.2,0.3 0.4,0.5 0.6,0.6 0.2,0.1 0.5,0.2 0.8,0.2 0.4,0 0.7,-0.1 1,-0.3 0.3,-0.2 0.5,-0.4 0.7,-0.8 0.2,-0.4 0.4,-0.8 0.5,-1.3 0.1,-0.5 0.3,-1.2 0.4,-1.9 0.2,0.1 0.4,0.1 0.7,0.2 0.2,0.1 0.4,0.2 0.6,0.4 z"
   id="path32"
   inkscape:connector-curvature="0" />
	</g>
	<g
   id="g38">
		<path
   d="m 357,286.6 h 2.6 v 2.2 h -8.5 v -2.2 h 2.6 v -35.8 h -2.6 v -2.2 h 5.8 v 38 z"
   id="path36"
   inkscape:connector-curvature="0" />
	</g>
	<rect
   x="428.39999"
   y="302.10001"
   width="124.9"
   height="2.0999999"
   id="rect40" />
	<rect
   x="289.39999"
   y="302"
   width="70.300003"
   height="2.0999999"
   id="rect42" />
	<g
   id="g46">
		<path
   d="m 365.4,258 c 0.6,-0.3 1.2,-0.7 1.8,-1 0.6,-0.4 1.1,-0.8 1.7,-1.2 0.5,-0.4 1,-0.9 1.5,-1.4 0.4,-0.5 0.8,-1.1 1.2,-1.8 0.1,-0.2 0.2,-0.4 0.3,-0.6 0.1,-0.2 0.2,-0.4 0.3,-0.6 h -0.1 c -0.5,0.5 -0.9,0.8 -1.4,0.9 -0.4,0.1 -0.8,0.1 -1.2,-0.1 -0.2,-0.1 -0.4,-0.3 -0.6,-0.5 -0.2,-0.2 -0.3,-0.5 -0.3,-0.9 -0.1,-0.3 0,-0.7 0,-1.1 0.1,-0.4 0.2,-0.9 0.5,-1.3 0.2,-0.4 0.5,-0.8 0.8,-1.2 0.3,-0.4 0.6,-0.7 1,-0.9 0.3,-0.2 0.7,-0.4 1.1,-0.5 0.4,-0.1 0.7,0 1.1,0.2 0.4,0.2 0.7,0.5 0.9,0.9 0.2,0.4 0.4,0.9 0.4,1.5 0,0.6 0,1.3 -0.2,2.1 -0.2,0.8 -0.5,1.6 -0.9,2.5 -0.8,1.5 -1.8,2.8 -3.1,4 -1.3,1.2 -2.8,2.2 -4.6,3 -0.1,-0.3 -0.1,-0.6 -0.1,-0.9 -0.1,-0.4 -0.1,-0.7 -0.1,-1.1 z"
   id="path44"
   inkscape:connector-curvature="0" />
	</g>
	<g
   id="g50">
		<path
   d="m 511.1,300.1 c -0.2,-0.1 -0.3,-0.2 -0.5,-0.4 -0.1,-0.2 -0.3,-0.4 -0.4,-0.6 l 4.3,-11.5 c 0.9,0.6 1.7,1.5 2.6,2.7 z"
   id="path48"
   inkscape:connector-curvature="0" />
	</g>
</g>
</svg>