<?xml version="1.0" encoding="UTF-8" standalone="no"?>
<!-- Generator: Adobe Illustrator 22.0.1, SVG Export Plug-In . SVG Version: 6.00 Build 0)  -->

<svg
   xmlns:dc="http://purl.org/dc/elements/1.1/"
   xmlns:cc="http://creativecommons.org/ns#"
   xmlns:rdf="http://www.w3.org/1999/02/22-rdf-syntax-ns#"
   xmlns:svg="http://www.w3.org/2000/svg"
   xmlns="http://www.w3.org/2000/svg"
   xmlns:sodipodi="http://sodipodi.sourceforge.net/DTD/sodipodi-0.dtd"
   xmlns:inkscape="http://www.inkscape.org/namespaces/inkscape"
   version="1.1"
   id="Calque_1"
   x="0px"
   y="0px"
   viewBox="0 0 214.30149 214.30151"
   xml:space="preserve"
   sodipodi:docname="logo 3.svg"
   width="214.3015"
   height="214.3015"
   inkscape:version="0.92.3 (2405546, 2018-03-11)"
   inkscape:export-filename="C:\Users\Nathanaël\Documents\Logo\Version en cours\logo 3.png"
   inkscape:export-xdpi="300"
   inkscape:export-ydpi="300"><metadata
   id="metadata17"><rdf:RDF><cc:Work
       rdf:about=""><dc:format>image/svg+xml</dc:format><dc:type
         rdf:resource="http://purl.org/dc/dcmitype/StillImage" /><dc:title></dc:title></cc:Work></rdf:RDF></metadata><defs
   id="defs15" /><sodipodi:namedview
   pagecolor="#ffffff"
   bordercolor="#666666"
   borderopacity="1"
   objecttolerance="10"
   gridtolerance="10"
   guidetolerance="10"
   inkscape:pageopacity="0"
   inkscape:pageshadow="2"
   inkscape:window-width="1920"
   inkscape:window-height="1001"
   id="namedview13"
   showgrid="false"
   inkscape:zoom="2.2425964"
   inkscape:cx="147.92364"
   inkscape:cy="114.52198"
   inkscape:window-x="-9"
   inkscape:window-y="-9"
   inkscape:window-maximized="1"
   inkscape:current-layer="Calque_1" />
<style
   type="text/css"
   id="style2">
	.st0{fill:#BE1E2D;}
	.st1{fill:#FFFFFF;}
</style>
<g
   id="g10"
   transform="matrix(2.8421949,0,0,2.8421949,-1090.5502,-737.83376)">
	<circle
   class="st0"
   cx="421.39999"
   cy="297.29999"
   r="37.700001"
   id="circle4"
   style="fill:#be1e2d" />
	<g
   id="g8">
		<path
   class="st1"
   d="m 450.6,311.2 -0.9,4.2 c -4.1,3.8 -7.9,6.2 -11.6,7.5 -3.7,1.2 -7.8,1.3 -12.4,0.4 -8.1,-1.7 -14.2,-5.9 -18.4,-12.5 -4.1,-6.7 -5.3,-14.3 -3.5,-22.9 1.8,-8.7 5.8,-15.4 12.1,-20.3 6.3,-4.9 13,-6.6 20.3,-5.1 6,1.2 10.8,4.6 14.4,9.9 3.6,5.4 4.7,11.2 3.4,17.4 l -0.2,1.2 -38.2,-7.9 -0.2,0.8 c -1.3,6.3 -1.6,11.9 -0.8,17 0.8,5 2.6,9.2 5.4,12.5 2.8,3.3 6,5.3 9.6,6.1 3.4,0.7 6.4,0.5 9.2,-0.5 2.9,-1.3 6.7,-3.8 11.8,-7.8 z m -34.3,-31 28.3,5.8 0.2,-1.1 c 1.1,-5.1 0.6,-9.4 -1.5,-12.9 -2,-3.5 -5,-5.7 -9,-6.5 -4.2,-0.9 -7.9,0 -11.1,2.6 -3.2,2.7 -5.5,6.7 -6.9,12.1 z"
   id="path6"
   inkscape:connector-curvature="0"
   style="fill:#ffffff" />
	</g>
</g>
</svg>